<?xml version="1.0" standalone="no"?>
<!DOCTYPE svg PUBLIC "-//W3C//DTD SVG 20010904//EN"
 "http://www.w3.org/TR/2001/REC-SVG-20010904/DTD/svg10.dtd">
<svg version="1.0" xmlns="http://www.w3.org/2000/svg"
 width="512.000000pt" height="512.000000pt" viewBox="0 0 512.000000 512.000000"
 preserveAspectRatio="xMidYMid meet">
<metadata>
Created by potrace 1.14, written by Peter Selinger 2001-2017
</metadata>
<g transform="translate(0.000000,512.000000) scale(0.100000,-0.100000)"
fill="#000000" stroke="none">
<path d="M2520 4420 c0 -18 -7 -20 -80 -20 -73 0 -80 -2 -80 -20 0 -17 -7 -20
-40 -20 -33 0 -40 -3 -40 -20 0 -18 -7 -20 -60 -20 -53 0 -60 -2 -60 -20 0
-17 -7 -20 -40 -20 -33 0 -40 -3 -40 -20 0 -18 -7 -20 -60 -20 -53 0 -60 -2
-60 -20 0 -18 -7 -20 -60 -20 -53 0 -60 -2 -60 -20 0 -17 -7 -20 -40 -20 -33
0 -40 -3 -40 -20 0 -18 -7 -20 -60 -20 -53 0 -60 -2 -60 -20 0 -13 -7 -20 -20
-20 -13 0 -20 -7 -20 -20 0 -13 -7 -20 -20 -20 -13 0 -20 -7 -20 -20 0 -13 -7
-20 -20 -20 -17 0 -20 -7 -20 -40 0 -33 -3 -40 -20 -40 -17 0 -20 -7 -20 -40
0 -33 -3 -40 -20 -40 -17 0 -20 -7 -20 -40 0 -33 -3 -40 -20 -40 -13 0 -20 -7
-20 -20 0 -13 -7 -20 -20 -20 -17 0 -20 -7 -20 -40 0 -33 -3 -40 -20 -40 -13
0 -20 -7 -20 -20 0 -13 -7 -20 -20 -20 -18 0 -20 -7 -20 -60 0 -53 -2 -60 -20
-60 -18 0 -20 -7 -20 -60 0 -53 -2 -60 -20 -60 -19 0 -20 -7 -20 -160 0 -153
-1 -160 -20 -160 -20 0 -20 -7 -20 -280 0 -273 0 -280 20 -280 17 0 20 -7 20
-40 0 -33 3 -40 20 -40 13 0 20 -7 20 -20 0 -13 7 -20 20 -20 18 0 20 -7 20
-60 0 -53 -2 -60 -20 -60 -13 0 -20 -7 -20 -20 0 -13 -7 -20 -20 -20 -18 0
-20 -7 -20 -60 0 -53 2 -60 20 -60 17 0 20 -7 20 -40 0 -33 3 -40 20 -40 17 0
20 -7 20 -40 0 -33 3 -40 20 -40 13 0 20 -7 20 -20 0 -13 7 -20 20 -20 17 0
20 -7 20 -40 0 -33 3 -40 20 -40 18 0 20 -7 20 -60 0 -53 2 -60 20 -60 18 0
20 -7 20 -60 0 -53 2 -60 20 -60 18 0 20 -7 20 -60 0 -53 2 -60 20 -60 18 0
20 -7 20 -60 0 -53 2 -60 20 -60 17 0 20 -7 20 -40 0 -33 3 -40 20 -40 17 0
20 -7 20 -40 0 -33 3 -40 20 -40 17 0 20 -7 20 -40 0 -33 3 -40 20 -40 13 0
20 -7 20 -20 0 -13 7 -20 20 -20 17 0 20 -7 20 -40 0 -33 3 -40 20 -40 13 0
20 -7 20 -20 0 -13 7 -20 20 -20 17 0 20 -7 20 -40 0 -33 3 -40 20 -40 17 0
20 -7 20 -40 0 -33 3 -40 20 -40 18 0 20 -7 20 -80 0 -73 2 -80 20 -80 19 0
20 -7 20 -120 l0 -120 -40 0 c-33 0 -40 -3 -40 -20 0 -17 -7 -20 -40 -20 -33
0 -40 -3 -40 -20 0 -17 -7 -20 -40 -20 -33 0 -40 -3 -40 -20 0 -13 -7 -20 -20
-20 -13 0 -20 -7 -20 -20 0 -18 -7 -20 -80 -20 -73 0 -80 -2 -80 -20 0 -17 -7
-20 -40 -20 -33 0 -40 -3 -40 -20 0 -18 -7 -20 -60 -20 -53 0 -60 -2 -60 -20
0 -17 -7 -20 -40 -20 -33 0 -40 -3 -40 -20 0 -18 -7 -20 -80 -20 -73 0 -80 -2
-80 -20 0 -20 7 -20 2020 -20 2013 0 2020 0 2020 20 0 17 -7 20 -40 20 -33 0
-40 3 -40 20 0 17 -7 20 -40 20 -33 0 -40 3 -40 20 0 18 -7 20 -60 20 -53 0
-60 2 -60 20 0 17 -7 20 -40 20 -33 0 -40 3 -40 20 0 18 -7 20 -60 20 -53 0
-60 2 -60 20 0 17 -7 20 -40 20 -33 0 -40 3 -40 20 0 18 -7 20 -60 20 -53 0
-60 2 -60 20 0 17 -7 20 -40 20 -33 0 -40 3 -40 20 0 17 -7 20 -40 20 -33 0
-40 3 -40 20 0 13 -7 20 -20 20 -13 0 -20 7 -20 20 0 17 -7 20 -40 20 -33 0
-40 3 -40 20 0 17 -7 20 -40 20 -33 0 -40 3 -40 20 0 17 -7 20 -40 20 -33 0
-40 3 -40 20 0 17 -7 20 -40 20 -33 0 -40 3 -40 20 0 18 -7 20 -80 20 l-80 0
0 60 c0 53 -2 60 -20 60 -19 0 -20 7 -20 200 0 193 1 200 20 200 18 0 20 7 20
80 0 73 2 80 20 80 18 0 20 7 20 80 0 73 2 80 20 80 18 0 20 7 20 80 l0 80 60
0 c53 0 60 2 60 20 0 13 7 20 20 20 13 0 20 7 20 20 0 13 7 20 20 20 18 0 20
7 20 60 0 53 2 60 20 60 18 0 20 7 20 80 0 73 2 80 20 80 17 0 20 7 20 40 0
33 3 40 20 40 17 0 20 7 20 40 0 33 3 40 20 40 18 0 20 7 20 60 0 53 2 60 20
60 18 0 20 7 20 60 0 53 -2 60 -20 60 -17 0 -20 7 -20 40 0 33 -3 40 -20 40
-13 0 -20 7 -20 20 0 13 -7 20 -20 20 -17 0 -20 7 -20 40 0 33 3 40 20 40 20
0 20 7 20 300 0 293 0 300 -20 300 -19 0 -20 7 -20 120 0 113 1 120 20 120 17
0 20 7 20 40 0 33 -3 40 -20 40 -18 0 -20 7 -20 60 0 53 -2 60 -20 60 -17 0
-20 7 -20 40 0 33 -3 40 -20 40 -13 0 -20 7 -20 20 0 13 -7 20 -20 20 -17 0
-20 7 -20 40 0 33 -3 40 -20 40 -13 0 -20 7 -20 20 0 13 -7 20 -20 20 -17 0
-20 7 -20 40 0 33 -3 40 -20 40 -13 0 -20 7 -20 20 0 13 -7 20 -20 20 -13 0
-20 7 -20 20 0 13 -7 20 -20 20 -13 0 -20 7 -20 20 0 13 -7 20 -20 20 -13 0
-20 7 -20 20 0 17 -7 20 -40 20 l-40 0 0 40 c0 33 -3 40 -20 40 -13 0 -20 7
-20 20 0 13 -7 20 -20 20 -13 0 -20 7 -20 20 0 18 -7 20 -60 20 -53 0 -60 2
-60 20 0 17 -7 20 -40 20 -33 0 -40 3 -40 20 0 18 -7 20 -80 20 -73 0 -80 2
-80 20 0 18 -7 20 -80 20 -73 0 -80 2 -80 20 0 19 -7 20 -200 20 -193 0 -200
1 -200 20 0 18 -7 20 -60 20 -53 0 -60 -2 -60 -20z m80 -1040 c0 -13 7 -20 20
-20 13 0 20 -7 20 -20 0 -18 7 -20 80 -20 73 0 80 2 80 20 0 19 7 20 100 20
93 0 100 -1 100 -20 0 -18 7 -20 80 -20 73 0 80 -2 80 -20 0 -17 7 -20 40 -20
33 0 40 -3 40 -20 0 -17 7 -20 40 -20 33 0 40 -3 40 -20 0 -17 7 -20 40 -20
33 0 40 -3 40 -20 0 -17 7 -20 40 -20 l40 0 0 -40 c0 -33 3 -40 20 -40 18 0
20 -7 20 -80 0 -73 2 -80 20 -80 17 0 20 -7 20 -40 0 -33 -3 -40 -20 -40 -17
0 -20 -7 -20 -40 0 -33 3 -40 20 -40 13 0 20 -7 20 -20 0 -17 -7 -20 -40 -20
l-40 0 0 40 c0 33 -3 40 -20 40 -13 0 -20 7 -20 20 0 17 -7 20 -40 20 -33 0
-40 3 -40 20 0 13 -7 20 -20 20 -13 0 -20 7 -20 20 0 17 -7 20 -40 20 -33 0
-40 3 -40 20 0 18 -7 20 -60 20 -53 0 -60 2 -60 20 0 19 -7 20 -120 20 -113 0
-120 -1 -120 -20 0 -18 -7 -20 -80 -20 -73 0 -80 -2 -80 -20 0 -19 -7 -20
-100 -20 -93 0 -100 -1 -100 -20 0 -13 -7 -20 -20 -20 -13 0 -20 -7 -20 -20 0
-19 -7 -20 -140 -20 -133 0 -140 1 -140 20 0 19 -7 20 -100 20 -93 0 -100 1
-100 20 0 17 -7 20 -40 20 -33 0 -40 -3 -40 -20 0 -18 -7 -20 -80 -20 -73 0
-80 -2 -80 -20 0 -17 -7 -20 -40 -20 -33 0 -40 -3 -40 -20 0 -18 -7 -20 -60
-20 l-60 0 0 -40 c0 -33 -3 -40 -20 -40 -18 0 -20 -7 -20 -60 0 -53 -2 -60
-20 -60 -18 0 -20 7 -20 60 0 53 2 60 20 60 19 0 20 7 20 100 0 93 1 100 20
100 17 0 20 7 20 40 0 33 3 40 20 40 17 0 20 7 20 40 0 33 3 40 20 40 17 0 20
7 20 40 l0 40 60 0 c53 0 60 -2 60 -20 0 -13 7 -20 20 -20 13 0 20 -7 20 -20
0 -18 7 -20 80 -20 73 0 80 2 80 20 0 13 7 20 20 20 13 0 20 7 20 20 0 17 7
20 40 20 33 0 40 3 40 20 0 13 7 20 20 20 13 0 20 7 20 20 0 18 7 20 60 20 53
0 60 -2 60 -20 0 -13 7 -20 20 -20 13 0 20 7 20 20 0 17 7 20 40 20 33 0 40 3
40 20 0 13 7 20 20 20 13 0 20 7 20 20 0 13 7 20 20 20 13 0 20 7 20 20 0 18
7 20 60 20 53 0 60 2 60 20 0 13 7 20 20 20 13 0 20 -7 20 -20z m-640 -680 c0
-13 7 -20 20 -20 13 0 20 -7 20 -20 0 -19 -7 -20 -120 -20 l-120 0 0 40 0 40
100 0 c93 0 100 -1 100 -20z m600 -40 c0 -13 -7 -20 -20 -20 -13 0 -20 7 -20
20 0 13 7 20 20 20 13 0 20 -7 20 -20z m-840 -40 c0 -13 -7 -20 -20 -20 -13 0
-20 7 -20 20 0 13 7 20 20 20 13 0 20 -7 20 -20z m760 0 c0 -18 -7 -20 -80
-20 -73 0 -80 2 -80 20 0 18 7 20 80 20 73 0 80 -2 80 -20z m120 -140 c0 -73
-2 -80 -20 -80 -18 0 -20 7 -20 80 0 73 2 80 20 80 18 0 20 -7 20 -80z m-1000
20 c0 -13 7 -20 20 -20 13 0 20 -7 20 -20 0 -18 -7 -20 -60 -20 -53 0 -60 2
-60 20 0 13 7 20 20 20 13 0 20 7 20 20 0 13 7 20 20 20 13 0 20 -7 20 -20z
m2160 -80 l0 -60 -40 0 -40 0 0 -40 c0 -33 -3 -40 -20 -40 -18 0 -20 -7 -20
-80 0 -73 -2 -80 -20 -80 -18 0 -20 -7 -20 -80 l0 -80 -40 0 c-33 0 -40 -3
-40 -20 0 -19 -7 -20 -180 -20 -173 0 -180 1 -180 20 0 13 -7 20 -20 20 -13 0
-20 7 -20 20 0 17 -7 20 -40 20 l-40 0 0 40 0 40 40 0 c33 0 40 3 40 20 0 17
7 20 40 20 33 0 40 3 40 20 0 17 7 20 40 20 33 0 40 3 40 20 0 17 7 20 40 20
33 0 40 3 40 20 0 13 7 20 20 20 13 0 20 7 20 20 0 13 7 20 20 20 17 0 20 7
20 40 0 33 3 40 20 40 13 0 20 7 20 20 0 13 7 20 20 20 13 0 20 7 20 20 0 17
7 20 40 20 33 0 40 3 40 20 0 18 7 20 80 20 l80 0 0 -60z m-1600 -60 l0 -40
-40 0 -40 0 0 -40 c0 -33 3 -40 20 -40 13 0 20 -7 20 -20 0 -13 -7 -20 -20
-20 -13 0 -20 -7 -20 -20 0 -13 -7 -20 -20 -20 -13 0 -20 -7 -20 -20 0 -19 -7
-20 -100 -20 -93 0 -100 -1 -100 -20 0 -19 -7 -20 -100 -20 -93 0 -100 1 -100
20 0 13 -7 20 -20 20 -13 0 -20 7 -20 20 0 13 -7 20 -20 20 -13 0 -20 7 -20
20 0 13 -7 20 -20 20 -17 0 -20 7 -20 40 0 33 3 40 20 40 13 0 20 7 20 20 0
17 7 20 40 20 33 0 40 3 40 20 0 18 7 20 60 20 53 0 60 -2 60 -20 0 -19 7 -20
100 -20 93 0 100 1 100 20 0 18 7 20 60 20 53 0 60 2 60 20 0 17 7 20 40 20
l40 0 0 -40z m320 20 c0 -13 7 -20 20 -20 17 0 20 -7 20 -40 0 -33 3 -40 20
-40 13 0 20 -7 20 -20 0 -13 7 -20 20 -20 13 0 20 -7 20 -20 0 -13 7 -20 20
-20 13 0 20 -7 20 -20 0 -13 7 -20 20 -20 13 0 20 -7 20 -20 0 -17 7 -20 40
-20 33 0 40 -3 40 -20 0 -13 7 -20 20 -20 18 0 20 -7 20 -60 l0 -60 -40 0
c-33 0 -40 3 -40 20 0 19 -7 20 -220 20 -213 0 -220 -1 -220 -20 0 -17 -7 -20
-40 -20 -33 0 -40 -3 -40 -20 0 -17 -7 -20 -40 -20 l-40 0 0 80 0 80 40 0 c33
0 40 3 40 20 0 13 7 20 20 20 13 0 20 7 20 20 0 13 7 20 20 20 17 0 20 7 20
40 0 33 3 40 20 40 17 0 20 7 20 40 0 33 3 40 20 40 17 0 20 7 20 40 l0 40 60
0 c53 0 60 -2 60 -20z m440 0 c0 -19 7 -20 160 -20 153 0 160 -1 160 -20 0
-17 7 -20 40 -20 33 0 40 3 40 20 0 13 7 20 20 20 13 0 20 -7 20 -20 0 -13 -7
-20 -20 -20 -13 0 -20 -7 -20 -20 0 -13 -7 -20 -20 -20 -13 0 -20 -7 -20 -20
0 -18 -7 -20 -80 -20 -73 0 -80 -2 -80 -20 0 -19 -7 -20 -140 -20 -133 0 -140
1 -140 20 0 13 -7 20 -20 20 -13 0 -20 7 -20 20 0 13 -7 20 -20 20 -13 0 -20
7 -20 20 0 13 -7 20 -20 20 -17 0 -20 7 -20 40 l0 40 100 0 c93 0 100 -1 100
-20z m-240 -80 c0 -13 7 -20 20 -20 13 0 20 -7 20 -20 0 -13 -7 -20 -20 -20
-13 0 -20 7 -20 20 0 13 -7 20 -20 20 -13 0 -20 7 -20 20 0 13 7 20 20 20 13
0 20 -7 20 -20z m-1200 -200 c0 -13 7 -20 20 -20 13 0 20 -7 20 -20 0 -18 7
-20 60 -20 l60 0 0 -40 0 -40 100 0 100 0 0 -40 c0 -33 -3 -40 -20 -40 -13 0
-20 -7 -20 -20 0 -18 -7 -20 -80 -20 -73 0 -80 2 -80 20 0 13 -7 20 -20 20
-13 0 -20 7 -20 20 0 13 7 20 20 20 13 0 20 7 20 20 0 17 -7 20 -40 20 -33 0
-40 3 -40 20 0 13 -7 20 -20 20 -17 0 -20 -7 -20 -40 0 -33 -3 -40 -20 -40
-17 0 -20 7 -20 40 0 33 3 40 20 40 13 0 20 7 20 20 0 13 -7 20 -20 20 -13 0
-20 7 -20 20 0 13 -7 20 -20 20 -13 0 -20 7 -20 20 0 13 7 20 20 20 13 0 20
-7 20 -20z m1400 -240 c0 -13 -7 -20 -20 -20 -13 0 -20 7 -20 20 0 13 7 20 20
20 13 0 20 -7 20 -20z m-720 -80 c0 -19 7 -20 140 -20 133 0 140 -1 140 -20 0
-18 -7 -20 -80 -20 -73 0 -80 -2 -80 -20 0 -18 -7 -20 -80 -20 -73 0 -80 -2
-80 -20 0 -13 -7 -20 -20 -20 -17 0 -20 7 -20 40 0 33 3 40 20 40 17 0 20 7
20 40 0 33 3 40 20 40 13 0 20 -7 20 -20z m600 0 c0 -17 7 -20 40 -20 33 0 40
-3 40 -20 0 -18 -7 -20 -80 -20 -73 0 -80 2 -80 20 0 13 -7 20 -20 20 -13 0
-20 -7 -20 -20 0 -13 -7 -20 -20 -20 -13 0 -20 7 -20 20 0 13 7 20 20 20 13 0
20 7 20 20 0 18 7 20 60 20 53 0 60 -2 60 -20z m40 -200 c0 -13 7 -20 20 -20
13 0 20 -7 20 -20 0 -13 -7 -20 -20 -20 -13 0 -20 -7 -20 -20 0 -19 -7 -20
-120 -20 -113 0 -120 -1 -120 -20 0 -19 -7 -20 -120 -20 -113 0 -120 1 -120
20 0 18 -7 20 -60 20 l-60 0 0 40 0 40 40 0 c33 0 40 3 40 20 0 19 7 20 260
20 253 0 260 -1 260 -20z m-920 -120 c0 -13 7 -20 20 -20 13 0 20 -7 20 -20 0
-13 7 -20 20 -20 13 0 20 -7 20 -20 0 -17 7 -20 40 -20 33 0 40 3 40 20 0 17
7 20 40 20 33 0 40 -3 40 -20 0 -17 7 -20 40 -20 33 0 40 -3 40 -20 0 -17 7
-20 40 -20 33 0 40 -3 40 -20 0 -13 7 -20 20 -20 17 0 20 -7 20 -40 0 -33 3
-40 20 -40 13 0 20 -7 20 -20 0 -18 7 -20 60 -20 53 0 60 -2 60 -20 0 -17 7
-20 40 -20 33 0 40 3 40 20 0 17 7 20 40 20 33 0 40 3 40 20 0 13 7 20 20 20
17 0 20 7 20 40 0 33 3 40 20 40 13 0 20 7 20 20 0 17 7 20 40 20 33 0 40 3
40 20 0 13 7 20 20 20 13 0 20 7 20 20 0 17 7 20 40 20 33 0 40 3 40 20 0 18
7 20 80 20 73 0 80 2 80 20 0 13 7 20 20 20 13 0 20 -7 20 -20 0 -13 7 -20 20
-20 17 0 20 -7 20 -40 l0 -40 -40 0 -40 0 0 -100 c0 -93 -1 -100 -20 -100 -13
0 -20 -7 -20 -20 0 -13 -7 -20 -20 -20 -17 0 -20 -7 -20 -40 0 -33 -3 -40 -20
-40 -17 0 -20 -7 -20 -40 0 -33 -3 -40 -20 -40 -13 0 -20 -7 -20 -20 0 -18 -7
-20 -60 -20 -53 0 -60 -2 -60 -20 0 -13 -7 -20 -20 -20 -13 0 -20 -7 -20 -20
0 -19 -7 -20 -260 -20 -253 0 -260 1 -260 20 0 18 -7 20 -60 20 l-60 0 0 40
c0 33 -3 40 -20 40 -13 0 -20 7 -20 20 0 13 -7 20 -20 20 -17 0 -20 7 -20 40
0 33 -3 40 -20 40 -18 0 -20 7 -20 80 0 73 2 80 20 80 13 0 20 7 20 20 0 13
-7 20 -20 20 -13 0 -20 7 -20 20 0 17 -7 20 -40 20 -33 0 -40 -3 -40 -20 0
-13 -7 -20 -20 -20 -17 0 -20 7 -20 40 l0 40 -40 0 -40 0 0 40 c0 33 3 40 20
40 13 0 20 7 20 20 0 13 7 20 20 20 13 0 20 -7 20 -20z"/>
</g>
</svg>
