<?xml version="1.0" encoding="UTF-8" standalone="no"?><!DOCTYPE svg PUBLIC "-//W3C//DTD SVG 1.1//EN" "http://www.w3.org/Graphics/SVG/1.1/DTD/svg11.dtd"><!-- Generated by graphviz version 2.40.1 (20161225.0304)
 --><!-- Title: exec_plan Pages: 1 --><svg xmlns="http://www.w3.org/2000/svg" xmlns:xlink="http://www.w3.org/1999/xlink" width="1291pt" height="1184pt" viewBox="0.00 0.00 1290.52 1183.80">
<g id="graph0" class="graph" transform="scale(1 1) rotate(0) translate(4 1179.8)">
<title>exec_plan</title>
<polygon fill="#ffffff" stroke="transparent" points="-4,4 -4,-1179.8 1286.5159,-1179.8 1286.5159,4 -4,4"/>
<!-- Sort_14 -->
<g id="node1" class="node">
<title>Sort_14</title>
<path fill="none" stroke="#000000" d="M146.6772,-1100.9C146.6772,-1100.9 609.9536,-1100.9 609.9536,-1100.9 615.9536,-1100.9 621.9536,-1106.9 621.9536,-1112.9 621.9536,-1112.9 621.9536,-1163.3 621.9536,-1163.3 621.9536,-1169.3 615.9536,-1175.3 609.9536,-1175.3 609.9536,-1175.3 146.6772,-1175.3 146.6772,-1175.3 140.6772,-1175.3 134.6772,-1169.3 134.6772,-1163.3 134.6772,-1163.3 134.6772,-1112.9 134.6772,-1112.9 134.6772,-1106.9 140.6772,-1100.9 146.6772,-1100.9"/>
<text text-anchor="middle" x="378.3154" y="-1158.7" font-family="Times,serif" font-size="14.00" fill="#000000">Sort_14</text>
<polyline fill="none" stroke="#000000" points="134.6772,-1150.5 621.9536,-1150.5 "/>
<text text-anchor="middle" x="378.3154" y="-1133.9" font-family="Times,serif" font-size="14.00" fill="#000000">outputVar: {"colNames":["name","age"],"type":"DATASET","name":"__Sort_14"}</text>
<polyline fill="none" stroke="#000000" points="134.6772,-1125.7 621.9536,-1125.7 "/>
<text text-anchor="middle" x="378.3154" y="-1109.1" font-family="Times,serif" font-size="14.00" fill="#000000">inputVar: __Dedup_13</text>
</g>
<!-- Dedup_13 -->
<g id="node2" class="node">
<title>Dedup_13</title>
<path fill="none" stroke="#000000" d="M139.6835,-988.5C139.6835,-988.5 616.9473,-988.5 616.9473,-988.5 622.9473,-988.5 628.9473,-994.5 628.9473,-1000.5 628.9473,-1000.5 628.9473,-1050.9 628.9473,-1050.9 628.9473,-1056.9 622.9473,-1062.9 616.9473,-1062.9 616.9473,-1062.9 139.6835,-1062.9 139.6835,-1062.9 133.6835,-1062.9 127.6835,-1056.9 127.6835,-1050.9 127.6835,-1050.9 127.6835,-1000.5 127.6835,-1000.5 127.6835,-994.5 133.6835,-988.5 139.6835,-988.5"/>
<text text-anchor="middle" x="378.3154" y="-1046.3" font-family="Times,serif" font-size="14.00" fill="#000000">Dedup_13</text>
<polyline fill="none" stroke="#000000" points="127.6835,-1038.1 628.9473,-1038.1 "/>
<text text-anchor="middle" x="378.3154" y="-1021.5" font-family="Times,serif" font-size="14.00" fill="#000000">outputVar: {"colNames":["name","age"],"type":"DATASET","name":"__Dedup_13"}</text>
<polyline fill="none" stroke="#000000" points="127.6835,-1013.3 628.9473,-1013.3 "/>
<text text-anchor="middle" x="378.3154" y="-996.7" font-family="Times,serif" font-size="14.00" fill="#000000">inputVar: __Project_12</text>
</g>
<!-- Dedup_13&#45;&gt;Sort_14 -->
<g id="edge1" class="edge">
<title>Dedup_13-&gt;Sort_14</title>
<path fill="none" stroke="#000000" d="M378.3154,-1063.1276C378.3154,-1071.9435 378.3154,-1081.4557 378.3154,-1090.6478"/>
<polygon fill="#000000" stroke="#000000" points="374.8155,-1090.8358 378.3154,-1100.8359 381.8155,-1090.8359 374.8155,-1090.8358"/>
</g>
<!-- Project_12 -->
<g id="node3" class="node">
<title>Project_12</title>
<path fill="none" stroke="#000000" d="M138.5173,-876.1C138.5173,-876.1 618.1135,-876.1 618.1135,-876.1 624.1135,-876.1 630.1135,-882.1 630.1135,-888.1 630.1135,-888.1 630.1135,-938.5 630.1135,-938.5 630.1135,-944.5 624.1135,-950.5 618.1135,-950.5 618.1135,-950.5 138.5173,-950.5 138.5173,-950.5 132.5173,-950.5 126.5173,-944.5 126.5173,-938.5 126.5173,-938.5 126.5173,-888.1 126.5173,-888.1 126.5173,-882.1 132.5173,-876.1 138.5173,-876.1"/>
<text text-anchor="middle" x="378.3154" y="-933.9" font-family="Times,serif" font-size="14.00" fill="#000000">Project_12</text>
<polyline fill="none" stroke="#000000" points="126.5173,-925.7 630.1135,-925.7 "/>
<text text-anchor="middle" x="378.3154" y="-909.1" font-family="Times,serif" font-size="14.00" fill="#000000">outputVar: {"colNames":["name","age"],"type":"DATASET","name":"__Project_12"}</text>
<polyline fill="none" stroke="#000000" points="126.5173,-900.9 630.1135,-900.9 "/>
<text text-anchor="middle" x="378.3154" y="-884.3" font-family="Times,serif" font-size="14.00" fill="#000000">inputVar: __Filter_11</text>
</g>
<!-- Project_12&#45;&gt;Dedup_13 -->
<g id="edge2" class="edge">
<title>Project_12-&gt;Dedup_13</title>
<path fill="none" stroke="#000000" d="M378.3154,-950.7276C378.3154,-959.5435 378.3154,-969.0557 378.3154,-978.2478"/>
<polygon fill="#000000" stroke="#000000" points="374.8155,-978.4358 378.3154,-988.4359 381.8155,-978.4359 374.8155,-978.4358"/>
</g>
<!-- Filter_11 -->
<g id="node4" class="node">
<title>Filter_11</title>
<path fill="none" stroke="#000000" d="M20.162,-763.7C20.162,-763.7 736.4688,-763.7 736.4688,-763.7 742.4688,-763.7 748.4688,-769.7 748.4688,-775.7 748.4688,-775.7 748.4688,-826.1 748.4688,-826.1 748.4688,-832.1 742.4688,-838.1 736.4688,-838.1 736.4688,-838.1 20.162,-838.1 20.162,-838.1 14.162,-838.1 8.162,-832.1 8.162,-826.1 8.162,-826.1 8.162,-775.7 8.162,-775.7 8.162,-769.7 14.162,-763.7 20.162,-763.7"/>
<text text-anchor="middle" x="378.3154" y="-821.5" font-family="Times,serif" font-size="14.00" fill="#000000">Filter_11</text>
<polyline fill="none" stroke="#000000" points="8.162,-813.3 748.4688,-813.3 "/>
<text text-anchor="middle" x="378.3154" y="-796.7" font-family="Times,serif" font-size="14.00" fill="#000000">outputVar: {"colNames":["JOIN_DST_VID","__COL_0","__COL_1","DST_VID"],"type":"DATASET","name":"__Filter_11"}</text>
<polyline fill="none" stroke="#000000" points="8.162,-788.5 748.4688,-788.5 "/>
<text text-anchor="middle" x="378.3154" y="-771.9" font-family="Times,serif" font-size="14.00" fill="#000000">inputVar: __LeftJoin_10</text>
</g>
<!-- Filter_11&#45;&gt;Project_12 -->
<g id="edge3" class="edge">
<title>Filter_11-&gt;Project_12</title>
<path fill="none" stroke="#000000" d="M378.3154,-838.3276C378.3154,-847.1435 378.3154,-856.6557 378.3154,-865.8478"/>
<polygon fill="#000000" stroke="#000000" points="374.8155,-866.0358 378.3154,-876.0359 381.8155,-866.0359 374.8155,-866.0358"/>
</g>
<!-- LeftJoin_10 -->
<g id="node5" class="node">
<title>LeftJoin_10</title>
<path fill="none" stroke="#000000" d="M12,-651.3C12,-651.3 744.6308,-651.3 744.6308,-651.3 750.6308,-651.3 756.6308,-657.3 756.6308,-663.3 756.6308,-663.3 756.6308,-713.7 756.6308,-713.7 756.6308,-719.7 750.6308,-725.7 744.6308,-725.7 744.6308,-725.7 12,-725.7 12,-725.7 6,-725.7 0,-719.7 0,-713.7 0,-713.7 0,-663.3 0,-663.3 0,-657.3 6,-651.3 12,-651.3"/>
<text text-anchor="middle" x="378.3154" y="-709.1" font-family="Times,serif" font-size="14.00" fill="#000000">LeftJoin_10</text>
<polyline fill="none" stroke="#000000" points="0,-700.9 756.6308,-700.9 "/>
<text text-anchor="middle" x="378.3154" y="-684.3" font-family="Times,serif" font-size="14.00" fill="#000000">outputVar: {"colNames":["JOIN_DST_VID","__COL_0","__COL_1","DST_VID"],"type":"DATASET","name":"__LeftJoin_10"}</text>
<polyline fill="none" stroke="#000000" points="0,-676.1 756.6308,-676.1 "/>
<text text-anchor="middle" x="378.3154" y="-659.5" font-family="Times,serif" font-size="14.00" fill="#000000">inputVar: {"rightVar":{"__Project_9":0},"leftVar":{"__Project_7":0}}</text>
</g>
<!-- LeftJoin_10&#45;&gt;Filter_11 -->
<g id="edge4" class="edge">
<title>LeftJoin_10-&gt;Filter_11</title>
<path fill="none" stroke="#000000" d="M378.3154,-725.9276C378.3154,-734.7435 378.3154,-744.2557 378.3154,-753.4478"/>
<polygon fill="#000000" stroke="#000000" points="374.8155,-753.6358 378.3154,-763.6359 381.8155,-753.6359 374.8155,-753.6358"/>
</g>
<!-- Project_9 -->
<g id="node6" class="node">
<title>Project_9</title>
<path fill="none" stroke="#000000" d="M74.2776,-538.9C74.2776,-538.9 682.3532,-538.9 682.3532,-538.9 688.3532,-538.9 694.3532,-544.9 694.3532,-550.9 694.3532,-550.9 694.3532,-601.3 694.3532,-601.3 694.3532,-607.3 688.3532,-613.3 682.3532,-613.3 682.3532,-613.3 74.2776,-613.3 74.2776,-613.3 68.2776,-613.3 62.2776,-607.3 62.2776,-601.3 62.2776,-601.3 62.2776,-550.9 62.2776,-550.9 62.2776,-544.9 68.2776,-538.9 74.2776,-538.9"/>
<text text-anchor="middle" x="378.3154" y="-596.7" font-family="Times,serif" font-size="14.00" fill="#000000">Project_9</text>
<polyline fill="none" stroke="#000000" points="62.2776,-588.5 694.3532,-588.5 "/>
<text text-anchor="middle" x="378.3154" y="-571.9" font-family="Times,serif" font-size="14.00" fill="#000000">outputVar: {"colNames":["__COL_0","__COL_1","DST_VID"],"type":"DATASET","name":"__Project_9"}</text>
<polyline fill="none" stroke="#000000" points="62.2776,-563.7 694.3532,-563.7 "/>
<text text-anchor="middle" x="378.3154" y="-547.1" font-family="Times,serif" font-size="14.00" fill="#000000">inputVar: __GetVertices_8</text>
</g>
<!-- Project_9&#45;&gt;LeftJoin_10 -->
<g id="edge5" class="edge">
<title>Project_9-&gt;LeftJoin_10</title>
<path fill="none" stroke="#000000" d="M378.3154,-613.5276C378.3154,-622.3435 378.3154,-631.8557 378.3154,-641.0478"/>
<polygon fill="#000000" stroke="#000000" points="374.8155,-641.2358 378.3154,-651.2359 381.8155,-641.2359 374.8155,-641.2358"/>
</g>
<!-- GetVertices_8 -->
<g id="node7" class="node">
<title>GetVertices_8</title>
<path fill="none" stroke="#000000" d="M166.4655,-426.5C166.4655,-426.5 590.1653,-426.5 590.1653,-426.5 596.1653,-426.5 602.1653,-432.5 602.1653,-438.5 602.1653,-438.5 602.1653,-488.9 602.1653,-488.9 602.1653,-494.9 596.1653,-500.9 590.1653,-500.9 590.1653,-500.9 166.4655,-500.9 166.4655,-500.9 160.4655,-500.9 154.4655,-494.9 154.4655,-488.9 154.4655,-488.9 154.4655,-438.5 154.4655,-438.5 154.4655,-432.5 160.4655,-426.5 166.4655,-426.5"/>
<text text-anchor="middle" x="378.3154" y="-484.3" font-family="Times,serif" font-size="14.00" fill="#000000">GetVertices_8</text>
<polyline fill="none" stroke="#000000" points="154.4655,-476.1 602.1653,-476.1 "/>
<text text-anchor="middle" x="378.3154" y="-459.5" font-family="Times,serif" font-size="14.00" fill="#000000">outputVar: {"colNames":[],"type":"DATASET","name":"__GetVertices_8"}</text>
<polyline fill="none" stroke="#000000" points="154.4655,-451.3 602.1653,-451.3 "/>
<text text-anchor="middle" x="378.3154" y="-434.7" font-family="Times,serif" font-size="14.00" fill="#000000">inputVar: __Project_7</text>
</g>
<!-- GetVertices_8&#45;&gt;Project_9 -->
<g id="edge6" class="edge">
<title>GetVertices_8-&gt;Project_9</title>
<path fill="none" stroke="#000000" d="M378.3154,-501.1276C378.3154,-509.9435 378.3154,-519.4557 378.3154,-528.6478"/>
<polygon fill="#000000" stroke="#000000" points="374.8155,-528.8358 378.3154,-538.8359 381.8155,-528.8359 374.8155,-528.8358"/>
</g>
<!-- Project_7 -->
<g id="node8" class="node">
<title>Project_7</title>
<path fill="none" stroke="#000000" d="M126.5354,-314.1C126.5354,-314.1 630.0954,-314.1 630.0954,-314.1 636.0954,-314.1 642.0954,-320.1 642.0954,-326.1 642.0954,-326.1 642.0954,-376.5 642.0954,-376.5 642.0954,-382.5 636.0954,-388.5 630.0954,-388.5 630.0954,-388.5 126.5354,-388.5 126.5354,-388.5 120.5354,-388.5 114.5354,-382.5 114.5354,-376.5 114.5354,-376.5 114.5354,-326.1 114.5354,-326.1 114.5354,-320.1 120.5354,-314.1 126.5354,-314.1"/>
<text text-anchor="middle" x="378.3154" y="-371.9" font-family="Times,serif" font-size="14.00" fill="#000000">Project_7</text>
<polyline fill="none" stroke="#000000" points="114.5354,-363.7 642.0954,-363.7 "/>
<text text-anchor="middle" x="378.3154" y="-347.1" font-family="Times,serif" font-size="14.00" fill="#000000">outputVar: {"colNames":["JOIN_DST_VID"],"type":"DATASET","name":"__Project_7"}</text>
<polyline fill="none" stroke="#000000" points="114.5354,-338.9 642.0954,-338.9 "/>
<text text-anchor="middle" x="378.3154" y="-322.3" font-family="Times,serif" font-size="14.00" fill="#000000">inputVar: __GetNeighbors_6</text>
</g>
<!-- Project_7&#45;&gt;GetVertices_8 -->
<g id="edge7" class="edge">
<title>Project_7-&gt;GetVertices_8</title>
<path fill="none" stroke="#000000" d="M378.3154,-388.7276C378.3154,-397.5435 378.3154,-407.0557 378.3154,-416.2478"/>
<polygon fill="#000000" stroke="#000000" points="374.8155,-416.4358 378.3154,-426.4359 381.8155,-416.4359 374.8155,-416.4358"/>
</g>
<!-- GetNeighbors_6 -->
<g id="node9" class="node">
<title>GetNeighbors_6</title>
<path fill="none" stroke="#000000" d="M205.6254,-201.7C205.6254,-201.7 641.0054,-201.7 641.0054,-201.7 647.0054,-201.7 653.0054,-207.7 653.0054,-213.7 653.0054,-213.7 653.0054,-264.1 653.0054,-264.1 653.0054,-270.1 647.0054,-276.1 641.0054,-276.1 641.0054,-276.1 205.6254,-276.1 205.6254,-276.1 199.6254,-276.1 193.6254,-270.1 193.6254,-264.1 193.6254,-264.1 193.6254,-213.7 193.6254,-213.7 193.6254,-207.7 199.6254,-201.7 205.6254,-201.7"/>
<text text-anchor="middle" x="423.3154" y="-259.5" font-family="Times,serif" font-size="14.00" fill="#000000">GetNeighbors_6</text>
<polyline fill="none" stroke="#000000" points="193.6254,-251.3 653.0054,-251.3 "/>
<text text-anchor="middle" x="423.3154" y="-234.7" font-family="Times,serif" font-size="14.00" fill="#000000">outputVar: {"colNames":[],"type":"DATASET","name":"__GetNeighbors_6"}</text>
<polyline fill="none" stroke="#000000" points="193.6254,-226.5 653.0054,-226.5 "/>
<text text-anchor="middle" x="423.3154" y="-209.9" font-family="Times,serif" font-size="14.00" fill="#000000">inputVar: __VAR_0</text>
</g>
<!-- GetNeighbors_6&#45;&gt;Project_7 -->
<g id="edge8" class="edge">
<title>GetNeighbors_6-&gt;Project_7</title>
<path fill="none" stroke="#000000" d="M408.3311,-276.3276C404.6877,-285.4279 400.7473,-295.2701 396.9574,-304.7364"/>
<polygon fill="#000000" stroke="#000000" points="393.7019,-303.4513 393.2343,-314.0359 400.2004,-306.0531 393.7019,-303.4513"/>
</g>
<!-- Loop_5 -->
<g id="node10" class="node">
<title>Loop_5</title>
<polygon fill="none" stroke="#000000" points="889.3154,-148.4 831.1283,-130.4 889.3154,-112.4 947.5025,-130.4 889.3154,-148.4"/>
<text text-anchor="middle" x="889.3154" y="-126.2" font-family="Times,serif" font-size="14.00" fill="#000000">Loop_5</text>
</g>
<!-- Loop_5&#45;&gt;GetNeighbors_6 -->
<g id="edge9" class="edge">
<title>Loop_5-&gt;GetNeighbors_6</title>
<path fill="none" stroke="#000000" d="M855.8018,-138.2031C801.1749,-150.922 689.362,-176.9557 593.1141,-199.3653"/>
<polygon fill="#000000" stroke="#000000" points="592.2015,-195.9841 583.2557,-201.6607 593.7889,-202.8018 592.2015,-195.9841"/>
</g>
<!-- Start_1 -->
<g id="node12" class="node">
<title>Start_1</title>
<path fill="none" stroke="#000000" d="M697.6703,-201.7C697.6703,-201.7 1080.9605,-201.7 1080.9605,-201.7 1086.9605,-201.7 1092.9605,-207.7 1092.9605,-213.7 1092.9605,-213.7 1092.9605,-264.1 1092.9605,-264.1 1092.9605,-270.1 1086.9605,-276.1 1080.9605,-276.1 1080.9605,-276.1 697.6703,-276.1 697.6703,-276.1 691.6703,-276.1 685.6703,-270.1 685.6703,-264.1 685.6703,-264.1 685.6703,-213.7 685.6703,-213.7 685.6703,-207.7 691.6703,-201.7 697.6703,-201.7"/>
<text text-anchor="middle" x="889.3154" y="-259.5" font-family="Times,serif" font-size="14.00" fill="#000000">Start_1</text>
<polyline fill="none" stroke="#000000" points="685.6703,-251.3 1092.9605,-251.3 "/>
<text text-anchor="middle" x="889.3154" y="-234.7" font-family="Times,serif" font-size="14.00" fill="#000000">outputVar: {"colNames":[],"type":"DATASET","name":"__Start_1"}</text>
<polyline fill="none" stroke="#000000" points="685.6703,-226.5 1092.9605,-226.5 "/>
<text text-anchor="middle" x="889.3154" y="-209.9" font-family="Times,serif" font-size="14.00" fill="#000000">inputVar:</text>
</g>
<!-- Loop_5&#45;&gt;Start_1 -->
<g id="edge11" class="edge">
<title>Loop_5-&gt;Start_1</title>
<path fill="none" stroke="#000000" stroke-dasharray="5,2" d="M889.3154,-148.8055C889.3154,-160.497 889.3154,-176.2087 889.3154,-191.2362"/>
<polygon fill="#000000" stroke="#000000" points="885.8155,-191.4726 889.3154,-201.4726 892.8155,-191.4727 885.8155,-191.4726"/>
<text text-anchor="middle" x="897.8687" y="-170.6" font-family="Times,serif" font-size="14.00" fill="#000000">Do</text>
</g>
<!-- Dedup_4 -->
<g id="node11" class="node">
<title>Dedup_4</title>
<path fill="none" stroke="#000000" d="M884.1149,-538.9C884.1149,-538.9 1270.5159,-538.9 1270.5159,-538.9 1276.5159,-538.9 1282.5159,-544.9 1282.5159,-550.9 1282.5159,-550.9 1282.5159,-601.3 1282.5159,-601.3 1282.5159,-607.3 1276.5159,-613.3 1270.5159,-613.3 1270.5159,-613.3 884.1149,-613.3 884.1149,-613.3 878.1149,-613.3 872.1149,-607.3 872.1149,-601.3 872.1149,-601.3 872.1149,-550.9 872.1149,-550.9 872.1149,-544.9 878.1149,-538.9 884.1149,-538.9"/>
<text text-anchor="middle" x="1077.3154" y="-596.7" font-family="Times,serif" font-size="14.00" fill="#000000">Dedup_4</text>
<polyline fill="none" stroke="#000000" points="872.1149,-588.5 1282.5159,-588.5 "/>
<text text-anchor="middle" x="1077.3154" y="-571.9" font-family="Times,serif" font-size="14.00" fill="#000000">outputVar: {"colNames":[],"type":"DATASET","name":"__VAR_0"}</text>
<polyline fill="none" stroke="#000000" points="872.1149,-563.7 1282.5159,-563.7 "/>
<text text-anchor="middle" x="1077.3154" y="-547.1" font-family="Times,serif" font-size="14.00" fill="#000000">inputVar: __Project_3</text>
</g>
<!-- Dedup_4&#45;&gt;Loop_5 -->
<g id="edge10" class="edge">
<title>Dedup_4-&gt;Loop_5</title>
<path fill="none" stroke="#000000" d="M1114.9791,-538.7529C1131.5476,-518.3683 1147.3154,-491.6313 1147.3154,-463.7 1147.3154,-238.9 1147.3154,-238.9 1147.3154,-238.9 1147.3154,-193.3036 1008.6581,-156.2491 934.6421,-139.7173"/>
<polygon fill="#000000" stroke="#000000" points="935.1663,-136.2491 924.6482,-137.5221 933.6644,-143.0861 935.1663,-136.2491"/>
</g>
<!-- GetNeighbors_2 -->
<g id="node15" class="node">
<title>GetNeighbors_2</title>
<path fill="none" stroke="#000000" d="M671.6254,-314.1C671.6254,-314.1 1107.0054,-314.1 1107.0054,-314.1 1113.0054,-314.1 1119.0054,-320.1 1119.0054,-326.1 1119.0054,-326.1 1119.0054,-376.5 1119.0054,-376.5 1119.0054,-382.5 1113.0054,-388.5 1107.0054,-388.5 1107.0054,-388.5 671.6254,-388.5 671.6254,-388.5 665.6254,-388.5 659.6254,-382.5 659.6254,-376.5 659.6254,-376.5 659.6254,-326.1 659.6254,-326.1 659.6254,-320.1 665.6254,-314.1 671.6254,-314.1"/>
<text text-anchor="middle" x="889.3154" y="-371.9" font-family="Times,serif" font-size="14.00" fill="#000000">GetNeighbors_2</text>
<polyline fill="none" stroke="#000000" points="659.6254,-363.7 1119.0054,-363.7 "/>
<text text-anchor="middle" x="889.3154" y="-347.1" font-family="Times,serif" font-size="14.00" fill="#000000">outputVar: {"colNames":[],"type":"DATASET","name":"__GetNeighbors_2"}</text>
<polyline fill="none" stroke="#000000" points="659.6254,-338.9 1119.0054,-338.9 "/>
<text text-anchor="middle" x="889.3154" y="-322.3" font-family="Times,serif" font-size="14.00" fill="#000000">inputVar: __VAR_0</text>
</g>
<!-- Start_1&#45;&gt;GetNeighbors_2 -->
<g id="edge15" class="edge">
<title>Start_1-&gt;GetNeighbors_2</title>
<path fill="none" stroke="#000000" d="M889.3154,-276.3276C889.3154,-285.1435 889.3154,-294.6557 889.3154,-303.8478"/>
<polygon fill="#000000" stroke="#000000" points="885.8155,-304.0358 889.3154,-314.0359 892.8155,-304.0359 885.8155,-304.0358"/>
</g>
<!-- Start_0 -->
<g id="node13" class="node">
<title>Start_0</title>
<path fill="none" stroke="#000000" d="M697.6703,-.5C697.6703,-.5 1080.9605,-.5 1080.9605,-.5 1086.9605,-.5 1092.9605,-6.5 1092.9605,-12.5 1092.9605,-12.5 1092.9605,-62.9 1092.9605,-62.9 1092.9605,-68.9 1086.9605,-74.9 1080.9605,-74.9 1080.9605,-74.9 697.6703,-74.9 697.6703,-74.9 691.6703,-74.9 685.6703,-68.9 685.6703,-62.9 685.6703,-62.9 685.6703,-12.5 685.6703,-12.5 685.6703,-6.5 691.6703,-.5 697.6703,-.5"/>
<text text-anchor="middle" x="889.3154" y="-58.3" font-family="Times,serif" font-size="14.00" fill="#000000">Start_0</text>
<polyline fill="none" stroke="#000000" points="685.6703,-50.1 1092.9605,-50.1 "/>
<text text-anchor="middle" x="889.3154" y="-33.5" font-family="Times,serif" font-size="14.00" fill="#000000">outputVar: {"colNames":[],"type":"DATASET","name":"__Start_0"}</text>
<polyline fill="none" stroke="#000000" points="685.6703,-25.3 1092.9605,-25.3 "/>
<text text-anchor="middle" x="889.3154" y="-8.7" font-family="Times,serif" font-size="14.00" fill="#000000">inputVar:</text>
</g>
<!-- Start_0&#45;&gt;Loop_5 -->
<g id="edge12" class="edge">
<title>Start_0-&gt;Loop_5</title>
<path fill="none" stroke="#000000" d="M889.3154,-75.1374C889.3154,-84.1117 889.3154,-93.5491 889.3154,-102.0347"/>
<polygon fill="#000000" stroke="#000000" points="885.8155,-102.1675 889.3154,-112.1676 892.8155,-102.1676 885.8155,-102.1675"/>
</g>
<!-- Project_3 -->
<g id="node14" class="node">
<title>Project_3</title>
<path fill="none" stroke="#000000" d="M673.9071,-426.5C673.9071,-426.5 1106.7237,-426.5 1106.7237,-426.5 1112.7237,-426.5 1118.7237,-432.5 1118.7237,-438.5 1118.7237,-438.5 1118.7237,-488.9 1118.7237,-488.9 1118.7237,-494.9 1112.7237,-500.9 1106.7237,-500.9 1106.7237,-500.9 673.9071,-500.9 673.9071,-500.9 667.9071,-500.9 661.9071,-494.9 661.9071,-488.9 661.9071,-488.9 661.9071,-438.5 661.9071,-438.5 661.9071,-432.5 667.9071,-426.5 673.9071,-426.5"/>
<text text-anchor="middle" x="890.3154" y="-484.3" font-family="Times,serif" font-size="14.00" fill="#000000">Project_3</text>
<polyline fill="none" stroke="#000000" points="661.9071,-476.1 1118.7237,-476.1 "/>
<text text-anchor="middle" x="890.3154" y="-459.5" font-family="Times,serif" font-size="14.00" fill="#000000">outputVar: {"colNames":["_vid"],"type":"DATASET","name":"__Project_3"}</text>
<polyline fill="none" stroke="#000000" points="661.9071,-451.3 1118.7237,-451.3 "/>
<text text-anchor="middle" x="890.3154" y="-434.7" font-family="Times,serif" font-size="14.00" fill="#000000">inputVar: __GetNeighbors_2</text>
</g>
<!-- Project_3&#45;&gt;Dedup_4 -->
<g id="edge13" class="edge">
<title>Project_3-&gt;Dedup_4</title>
<path fill="none" stroke="#000000" d="M952.3239,-500.9714C969.6834,-511.4057 988.6827,-522.8256 1006.5104,-533.5413"/>
<polygon fill="#000000" stroke="#000000" points="1004.7817,-536.5858 1015.1557,-538.7377 1008.3879,-530.5861 1004.7817,-536.5858"/>
</g>
<!-- GetNeighbors_2&#45;&gt;Project_3 -->
<g id="edge14" class="edge">
<title>GetNeighbors_2-&gt;Project_3</title>
<path fill="none" stroke="#000000" d="M889.6484,-388.7276C889.7268,-397.5435 889.8114,-407.0557 889.8932,-416.2478"/>
<polygon fill="#000000" stroke="#000000" points="886.3949,-416.4674 889.9839,-426.4359 893.3947,-416.4051 886.3949,-416.4674"/>
</g>
</g>
</svg>